A Driver's eye view. Bergensbanen (Bergen - Oslo), Norway.
=====================================
Driver's eye view without comments
=====================================

Year: 2009
Country: Norway
Duration: 07:14:13
Author: Norsk rikskringkasting

Quality: CamRip
Format: mp4 (apple)
Video codec: AVC
Audio codec: aac
Video: MPEG4 Video (H264) 1280x720 50.00fps ~6981 Kbps
Audio: : AAC 48000Hz stereo 116 kbps


Format : QuickTime
Format/Info : Original Apple specifications
File size : 21.6 GiB
Duration : 7h 14mn
Overall bit rate : 7 117 Kbps
Encoded date : UTC 2009-12-16 16:33:49
Tagged date : UTC 2009-12-16 16:33:50
Writing library : Apple QuickTime

Video
ID : 1
Format : AVC
Format/Info : Advanced Video Codec
Format profile : High@L4.1
Format settings, CABAC : Yes
Format settings, ReFrames : 2 frames
Format settings, GOP : M=2, N=16
Codec ID : avc1
Codec ID/Info : Advanced Video Coding
Duration : 7h 14mn
Bit rate mode : Variable
Bit rate : 6 981 Kbps
Width : 1 280 pixels
Height : 720 pixels
Display aspect ratio : 16:9
Frame rate mode : Constant
Frame rate : 50.000 fps
Standard : PAL
Color space : YUV
Chroma subsampling : 4:2:0
Bit depth : 8 bits
Scan type : Progressive
Bits/(Pixel*Frame) : 0.152
Stream size : 21.2 GiB (98%)
Language : English
Encoded date : UTC 2009-12-16 16:33:49
Tagged date : UTC 2009-12-16 16:33:50
Color primaries : BT.601-6 525, BT.1358 525, BT.1700 NTSC, SMPTE 170M
Transfer characteristics : BT.601-6 525, BT.601-6 625, BT.1358 525, BT.1358 625, BT.1700 NTSC, SMPTE 170M
Matrix coefficients : BT.601-6 525, BT.1358 525, BT.1700 NTSC, SMPTE 170M

Audio
ID : 2
Format : AAC
Format/Info : Advanced Audio Codec
Format version : Version 4
Format profile : LC
Format settings, SBR : No
Codec ID : 40
Duration : 7h 14mn
Bit rate mode : Constant
Bit rate : 116 Kbps
Nominal bit rate : 160 Kbps
Channel(s) : 2 channels
Channel positions : Front: L R
Sampling rate : 48.0 KHz
Stream size : 360 MiB (2%)
Language : English
Encoded date : UTC 2009-12-16 16:33:50
Tagged date : UTC 2009-12-16 16:33:50
=====================================

Screenshots:  
http://nrkbeta.no/wp-content/uploads/2009/11/tog.2jpg.jpg 
http://gfx.nrk.no/wIX5rrQ1Ojo3PKw_74xvNgE3l4FHKuFIqnGdTZ-Ag2Sw.jpg
